<?xml version="1.0" encoding="utf-8"?>
<!-- Generator: Adobe Illustrator 19.2.1, SVG Export Plug-In . SVG Version: 6.00 Build 0)  -->
<svg version="1.1" id="Map" xmlns="http://www.w3.org/2000/svg" xmlns:xlink="http://www.w3.org/1999/xlink" x="0px" y="0px"
	 viewBox="0 0 228 361" style="enable-background:new 0 0 228 361;" xml:space="preserve">
<style type="text/css">
	.st0{fill:#003CFF;stroke:#F9F9F9;stroke-width:4;stroke-miterlimit:10;}
	.st1{fill:none;}
	.st2{fill:#FFFFFF;}
</style>
<path class="st0" d="M213.2,107.3c0-7.7-0.7-14.1-1.9-19.5c-9-45.5-49.2-79.7-97.3-79.7S25.7,42.4,16.7,87.8
	c-1.2,5.3-1.9,11.8-1.9,19.5c0,0.9,0,1.9,0,2.8c1.7,91.6,87.8,134.2,87.8,214.1c0,6.3,5.1,11.3,11.3,11.3s11.3-5.1,11.3-11.3
	c0-79.9,86.1-122.5,87.8-214.1C213.2,109.1,213.2,108.2,213.2,107.3L213.2,107.3z"/>
<rect x="1.1" y="-2.9" class="st1" width="225.9" height="225.7"/>
<path class="st2" d="M117.2,67.7l8.6-6.2l9.5-8.2l3.5-6.4l8.3-6.3l10.7-4.2l-0.9-3.6l-9.7-2.5l-10.6,2.4l-5.8,8.9l-13.4,6.4
	l-8.2,6.9L99.3,59l-8.8,4.2L86.4,66l-5.1,2.5l-7.5,3.2l-9.9,1.1l-3-1.2l-1.4-3l-4,1.2l-3.7,9.7l-5.5,5.6l0,7l8.1,4.3l3.6-3.9
	l5.4-2.3l12.9,3l-0.7,8.3l-4.9,4.6l-3.8,16l-1.1,11.2l4.6,10.4l-6.2,3.9l-0.8,5.7l4.9,0.9l7.7-2.8l27.5,41.2l10.1-1.8
	c3.8,10.6,11.8,38.2,19,69.2c2.5-0.4,5-0.9,7.5-1.4c-6.7-30-13.5-52-19.6-71l8.7-5.7l-9.9-50.9l5.1-3.8l-1-1.7l3.5-0.6l0.2-2.2
	l-2.2-1.3l1.3-6.3l-4.4-5.6l-9.8-4.8l-1.4-1.8l-1.1-14l3-12.9L117.2,67.7z M75.6,142.1l-1.8-9.9l-0.1-5.8l3.2-4.7l3.5-7.9l5.1,1.6
	c-2.6,3.7-4.5,8.3-3,12.5c2.3,6.8,10.8,6.4,10.8,6.4L75.6,142.1z M117.1,120.1l-0.8,4l-20,8.6c0,0,5.1-5.4,4.5-9.9
	c-0.4-3.4-1.6-6.3-4.2-8.1l12.5,1.7L117.1,120.1z"/>
</svg>
