<?xml version="1.0" encoding="utf-8"?>
<!-- Generator: Adobe Illustrator 19.2.1, SVG Export Plug-In . SVG Version: 6.00 Build 0)  -->
<svg version="1.1" id="Map" xmlns="http://www.w3.org/2000/svg" xmlns:xlink="http://www.w3.org/1999/xlink" x="0px" y="0px"
	 viewBox="0 0 228 361" style="enable-background:new 0 0 228 361;" xml:space="preserve">
<style type="text/css">
	.st0{fill:#003CFF;stroke:#F9F9F9;stroke-width:4;stroke-miterlimit:10;}
	.st1{fill:none;}
	.st2{fill:#FFFFFF;}
</style>
<path class="st0" d="M213.2,107.3c0-7.7-0.7-14.1-1.9-19.5c-9-45.5-49.2-79.7-97.3-79.7S25.7,42.4,16.7,87.8
	c-1.2,5.3-1.9,11.8-1.9,19.5c0,0.9,0,1.9,0,2.8c1.7,91.6,87.8,134.2,87.8,214.1c0,6.3,5.1,11.3,11.3,11.3s11.3-5.1,11.3-11.3
	c0-79.9,86.1-122.5,87.8-214.1C213.2,109.1,213.2,108.2,213.2,107.3L213.2,107.3z"/>
<rect x="1.1" y="-2.9" class="st1" width="225.9" height="225.7"/>
<rect x="-1.7" y="-5.1" class="st1" width="232.3" height="232.1"/>
<g>
	<g>
		<path class="st2" d="M52.4,173.4c-1.3-1.3-1.2-2.7,0.2-4.3L54,170c-0.9,1-1.2,1.8-0.6,2.3c0.2,0.2,0.4,0.3,0.6,0.3
			c0.2,0,0.4-0.1,0.7-0.4c0.2-0.2,0.4-0.4,0.5-0.7c0.1-0.2,0.1-0.5,0.2-0.7c0-0.2,0-0.5,0-0.8l-0.1-1.8c0-0.5,0-1,0.1-1.4
			c0.1-0.4,0.4-0.8,0.8-1.2c0.6-0.6,1.2-0.9,1.8-0.8c0.7,0,1.3,0.3,1.9,0.9c0.3,0.3,0.5,0.5,0.6,0.8c0.1,0.3,0.2,0.5,0.2,0.8
			c0,0.3,0,0.5-0.1,0.8c-0.1,0.3-0.2,0.5-0.3,0.8c-0.1,0.2-0.3,0.5-0.5,0.7l-1.4-0.9c0.1-0.2,0.3-0.3,0.4-0.4
			c0.1-0.1,0.2-0.3,0.3-0.4c0.1-0.1,0.1-0.3,0.1-0.4c0-0.1,0-0.2,0-0.4c0-0.1-0.1-0.2-0.3-0.4c-0.2-0.2-0.4-0.3-0.7-0.3
			c-0.2,0-0.4,0.1-0.6,0.3c-0.2,0.2-0.4,0.5-0.4,0.7c-0.1,0.2-0.1,0.6-0.1,0.9l0.1,1.8c0,0.3,0,0.6,0,0.8c0,0.3-0.1,0.5-0.1,0.8
			c-0.1,0.3-0.2,0.6-0.3,0.8c-0.2,0.3-0.3,0.5-0.6,0.8c-0.5,0.5-1.1,0.8-1.8,0.8C53.5,174.2,52.9,173.9,52.4,173.4z"/>
		<path class="st2" d="M57.4,177.8l5.8-7l-1.4-1.1l0.9-1.1l4.1,3.4l-0.9,1.1l-1.3-1.1l-5.8,7L57.4,177.8z"/>
		<path class="st2" d="M61.5,181.1l7.7-7.4l1.6,1.1l-4.2,9.8l-1.5-1l1-2.2l-1.5-1l-1.7,1.8L61.5,181.1z M65.6,179.5l1.2,0.8l1.9-3.9
			L65.6,179.5z"/>
		<path class="st2" d="M69.1,186.3l5.1-9.2l2.1,1.2c0.6,0.3,1,0.6,1.3,0.9c0.3,0.3,0.5,0.7,0.6,1c0.1,0.4,0.1,0.7,0,1.1
			c-0.1,0.4-0.3,0.9-0.6,1.4l-1.8,3.3c-0.3,0.5-0.6,0.9-0.9,1.3c-0.3,0.3-0.6,0.5-1,0.7c-0.4,0.1-0.8,0.2-1.2,0.1
			c-0.4-0.1-0.9-0.3-1.4-0.6L69.1,186.3z M71.4,186l0.5,0.3c0.2,0.1,0.3,0.2,0.5,0.2c0.1,0,0.3,0.1,0.4,0.1c0.1,0,0.2,0,0.3-0.1
			c0.1-0.1,0.2-0.1,0.3-0.2c0.1-0.1,0.2-0.2,0.3-0.3c0.1-0.1,0.2-0.3,0.3-0.4c0.1-0.1,0.2-0.3,0.3-0.5l1.9-3.4
			c0.1-0.2,0.2-0.4,0.3-0.5c0.1-0.1,0.1-0.3,0.2-0.4c0-0.1,0.1-0.3,0.1-0.4c0-0.1,0-0.2-0.1-0.3c-0.1-0.1-0.1-0.2-0.3-0.3
			c-0.1-0.1-0.3-0.2-0.5-0.3l-0.5-0.3L71.4,186z"/>
		<path class="st2" d="M79.5,191.6c-1.7-0.7-2.2-2.1-1.4-4.1l1.7,0.3c-0.5,1.3-0.4,2.1,0.3,2.4c0.3,0.1,0.5,0.1,0.7,0
			c0.2-0.1,0.4-0.3,0.5-0.6c0.1-0.3,0.2-0.5,0.2-0.8c0-0.3,0-0.5-0.1-0.7c-0.1-0.2-0.2-0.5-0.3-0.8l-0.8-1.6
			c-0.2-0.5-0.4-0.9-0.4-1.4c0-0.4,0.1-0.9,0.3-1.4c0.3-0.7,0.8-1.2,1.4-1.5c0.6-0.2,1.3-0.2,2.1,0.2c0.4,0.1,0.6,0.3,0.9,0.5
			c0.2,0.2,0.4,0.4,0.5,0.7c0.1,0.2,0.2,0.5,0.2,0.8c0,0.3,0,0.6,0,0.8c0,0.3-0.1,0.6-0.2,0.9l-1.6-0.4c0.1-0.2,0.1-0.4,0.2-0.5
			c0-0.2,0.1-0.3,0.1-0.5c0-0.2,0-0.3,0-0.4c0-0.1-0.1-0.2-0.2-0.3c-0.1-0.1-0.2-0.2-0.4-0.2c-0.3-0.1-0.5-0.1-0.7,0
			c-0.2,0.1-0.4,0.3-0.5,0.5c-0.1,0.3-0.2,0.6-0.1,0.8c0,0.3,0.1,0.5,0.3,0.9l0.8,1.6c0.1,0.3,0.2,0.5,0.3,0.8
			c0.1,0.2,0.1,0.5,0.2,0.8c0,0.3,0,0.6,0,0.9c0,0.3-0.1,0.6-0.3,0.9c-0.3,0.7-0.8,1.2-1.4,1.4C80.8,192,80.2,191.9,79.5,191.6z"/>
		<path class="st2" d="M84.6,193.6l3.3-10L92,185l-0.4,1.3l-2.3-0.8l-1,2.9l1.8,0.6l-0.4,1.3l-1.8-0.6l-1.5,4.5L84.6,193.6z"/>
		<path class="st2" d="M91.4,195.7l2.5-10.2l4.3,1l-0.3,1.3l-2.4-0.6l-0.7,2.9l1.9,0.5l-0.3,1.3l-1.9-0.5l-0.8,3.4l2.4,0.6l-0.3,1.3
			L91.4,195.7z"/>
		<path class="st2" d="M98.5,197.3l1.7-10.4l4.3,0.7l-0.2,1.3l-2.5-0.4l-0.5,3l1.9,0.3l-0.2,1.3l-1.9-0.3l-0.5,3.4l2.5,0.4l-0.2,1.3
			L98.5,197.3z"/>
		<path class="st2" d="M108.5,198.6c-1.8-0.1-2.7-1.3-2.7-3.4l1.7-0.2c-0.1,1.4,0.3,2.1,1,2.2c0.3,0,0.5-0.1,0.7-0.2
			c0.2-0.2,0.2-0.4,0.3-0.7c0-0.3,0-0.6-0.1-0.8c-0.1-0.2-0.2-0.5-0.3-0.6c-0.1-0.2-0.3-0.4-0.6-0.6l-1.3-1.3
			c-0.4-0.4-0.7-0.8-0.8-1.2c-0.2-0.4-0.2-0.9-0.2-1.5c0.1-0.8,0.3-1.4,0.8-1.8c0.5-0.4,1.2-0.6,2-0.6c0.4,0,0.7,0.1,1,0.2
			c0.3,0.1,0.5,0.3,0.7,0.4c0.2,0.2,0.3,0.4,0.4,0.7c0.1,0.3,0.2,0.5,0.2,0.8c0,0.3,0.1,0.6,0.1,0.9l-1.7,0.2c0-0.2,0-0.4,0-0.6
			c0-0.2,0-0.3-0.1-0.5c0-0.2-0.1-0.3-0.2-0.4c-0.1-0.1-0.2-0.2-0.3-0.3c-0.1-0.1-0.3-0.1-0.4-0.1c-0.3,0-0.5,0.1-0.7,0.2
			c-0.2,0.2-0.3,0.4-0.3,0.7c0,0.3,0,0.6,0.1,0.8c0.1,0.2,0.3,0.5,0.6,0.7l1.3,1.3c0.2,0.2,0.4,0.4,0.6,0.6c0.2,0.2,0.3,0.4,0.4,0.7
			c0.1,0.3,0.2,0.5,0.3,0.8c0.1,0.3,0.1,0.6,0.1,1c-0.1,0.8-0.3,1.4-0.9,1.8C109.9,198.5,109.3,198.7,108.5,198.6z"/>
		<path class="st2" d="M115.2,198.7l-0.2-9.1l-1.8,0l0-1.4l5.4-0.1l0,1.4l-1.7,0l0.2,9.1L115.2,198.7z"/>
		<path class="st2" d="M140.2,194.8l-3.2-10l1.8-0.6l3.2,10L140.2,194.8z"/>
		<path class="st2" d="M145,193.2l-4-9.7l1.2-0.5l4.6,4.5l-2.3-5.5l1.5-0.6l4,9.7l-1.2,0.5l-4.8-4.8l2.4,5.8L145,193.2z"/>
		<path class="st2" d="M157.4,187.4l-5.5-9l1.6-1l2.3,3.7l1.8-1.1l-2.3-3.7l1.6-1l5.5,9l-1.6,1l-2.5-4.1l-1.8,1.1l2.5,4.1
			L157.4,187.4z"/>
		<path class="st2" d="M165,182.6l-4.6-9.6l1.6-1.2l8,7.1l-1.4,1.1l-1.8-1.7l-1.4,1.1l1.1,2.2L165,182.6z M164.7,178.2l1.1-0.8
			l-3.2-3L164.7,178.2z"/>
		<path class="st2" d="M172.2,176.9l-7.2-7.7l1.8-1.6c0.4-0.4,0.8-0.7,1.1-0.9c0.4-0.2,0.7-0.3,1.1-0.4c0.4,0,0.7,0,1.1,0.2
			c0.4,0.2,0.7,0.4,1.1,0.8c0.4,0.5,0.7,0.9,0.9,1.4c0.1,0.4,0.1,0.9-0.1,1.3l4.6,2.8l-1.4,1.3l-4.2-2.6l-0.6,0.6l3.3,3.5
			L172.2,176.9z M169.5,171.2l0.3-0.3c0.4-0.4,0.6-0.7,0.6-1.1c0-0.3-0.2-0.7-0.6-1.1c-0.4-0.4-0.7-0.6-1-0.7
			c-0.3,0-0.7,0.1-1.1,0.5l-0.4,0.4L169.5,171.2z"/>
		<path class="st2" d="M179.4,169.8l-6.8-6l-1.2,1.3l-1.1-0.9l3.6-4l1.1,0.9l-1.1,1.3l6.8,6L179.4,169.8z"/>
		<path class="st2" d="M183,165.9l-1.1-0.8c0.3-0.4,0.5-0.8,0.5-1c0-0.3-0.3-0.5-0.7-0.9l-6.4-4.9l1.2-1.5l6.4,4.9
			c0.4,0.3,0.6,0.5,0.9,0.8c0.2,0.2,0.3,0.5,0.4,0.8c0.1,0.3,0.1,0.6-0.1,0.9c-0.1,0.3-0.3,0.6-0.6,1L183,165.9z"/>
		<path class="st2" d="M186.6,160.7l-8.8-5.7l2.4-3.7l1.1,0.7l-1.4,2.1l2.5,1.6l1.1-1.6l1.1,0.7l-1.1,1.6l2.9,1.9l1.4-2.1l1.1,0.7
			L186.6,160.7z"/>
		<path class="st2" d="M194.1,147.7c-0.5,1-1,1.6-1.8,1.7c-0.7,0.2-1.6,0-2.6-0.4l-3.5-1.6c-0.5-0.2-0.9-0.5-1.3-0.7
			c-0.3-0.3-0.6-0.6-0.8-0.9c-0.2-0.3-0.2-0.7-0.2-1.1c0-0.4,0.2-0.9,0.4-1.4c0.4-1,1-1.6,1.8-1.7c0.7-0.2,1.6,0,2.6,0.4l3.5,1.6
			c0.5,0.2,0.9,0.5,1.2,0.8c0.3,0.3,0.6,0.6,0.8,0.9c0.2,0.3,0.3,0.7,0.2,1.1C194.5,146.7,194.4,147.2,194.1,147.7z M192.6,147.5
			c0.1-0.1,0.2-0.2,0.3-0.4c0.1-0.2,0.1-0.3,0.1-0.5c0-0.1,0-0.3-0.1-0.4c0-0.1-0.1-0.2-0.2-0.3c-0.1-0.1-0.2-0.2-0.4-0.3
			c-0.1-0.1-0.3-0.2-0.5-0.2l-4.3-2c-0.2-0.1-0.4-0.2-0.6-0.2c-0.2,0-0.3-0.1-0.5-0.1c-0.2,0-0.3,0.1-0.4,0.2
			c-0.1,0.1-0.2,0.3-0.3,0.5c-0.1,0.2-0.1,0.4-0.1,0.6c0,0.2,0.1,0.3,0.2,0.4c0.1,0.1,0.2,0.2,0.4,0.3c0.1,0.1,0.3,0.2,0.6,0.3
			l4.3,2c0.2,0.1,0.3,0.1,0.5,0.2c0.1,0,0.3,0.1,0.4,0.1c0.1,0,0.3,0,0.4,0C192.4,147.6,192.5,147.6,192.6,147.5z"/>
		<path class="st2" d="M197.5,139.2c-0.3,1-0.9,1.7-1.6,1.9c-0.7,0.3-1.6,0.2-2.7-0.2l-3.7-1.2c-0.5-0.2-1-0.4-1.3-0.6
			c-0.4-0.2-0.6-0.5-0.8-0.8c-0.2-0.3-0.3-0.7-0.3-1.1c0-0.4,0.1-0.9,0.2-1.4c0.3-1,0.9-1.7,1.6-1.9c0.7-0.3,1.6-0.2,2.6,0.2
			l3.7,1.2c0.5,0.2,1,0.4,1.3,0.6c0.4,0.2,0.6,0.5,0.9,0.8c0.2,0.3,0.3,0.7,0.4,1.1C197.8,138.2,197.7,138.7,197.5,139.2z
			 M196,139.2c0.1-0.1,0.2-0.2,0.2-0.4c0.1-0.2,0.1-0.3,0.1-0.5c0-0.1,0-0.3-0.1-0.4c-0.1-0.1-0.1-0.2-0.3-0.3
			c-0.1-0.1-0.2-0.2-0.4-0.2c-0.1-0.1-0.3-0.1-0.5-0.2l-4.5-1.5c-0.2-0.1-0.4-0.1-0.6-0.2c-0.2,0-0.3,0-0.5,0
			c-0.2,0-0.3,0.1-0.4,0.2c-0.1,0.1-0.2,0.3-0.3,0.5c-0.1,0.2-0.1,0.4-0.1,0.6c0,0.2,0.1,0.3,0.2,0.4c0.1,0.1,0.3,0.2,0.4,0.3
			c0.2,0.1,0.3,0.2,0.6,0.2l4.5,1.5c0.2,0.1,0.4,0.1,0.5,0.1c0.1,0,0.3,0.1,0.4,0.1c0.2,0,0.3,0,0.4-0.1
			C195.8,139.4,195.9,139.3,196,139.2z"/>
		<path class="st2" d="M200,130.6c-0.4,1.8-1.7,2.5-3.8,2.1l0-1.7c1.4,0.3,2.1,0,2.3-0.7c0.1-0.3,0-0.5-0.1-0.7
			c-0.1-0.2-0.4-0.3-0.6-0.4c-0.3-0.1-0.6-0.1-0.8,0c-0.3,0-0.5,0.1-0.7,0.2c-0.2,0.1-0.4,0.3-0.7,0.4l-1.5,1.1
			c-0.4,0.3-0.9,0.5-1.3,0.6c-0.4,0.1-0.9,0.1-1.5,0c-0.8-0.2-1.4-0.6-1.7-1.1c-0.3-0.6-0.4-1.3-0.2-2.1c0.1-0.4,0.2-0.7,0.4-1
			c0.2-0.3,0.3-0.5,0.6-0.6c0.2-0.1,0.4-0.3,0.7-0.3c0.3-0.1,0.5-0.1,0.8-0.1c0.3,0,0.6,0,0.9,0.1l-0.1,1.7c-0.2,0-0.4-0.1-0.5-0.1
			c-0.2,0-0.3,0-0.5,0c-0.2,0-0.3,0-0.4,0.1c-0.1,0-0.2,0.1-0.3,0.2c-0.1,0.1-0.1,0.2-0.2,0.4c0,0.3,0,0.5,0.1,0.7
			c0.1,0.2,0.3,0.3,0.6,0.4c0.3,0.1,0.6,0.1,0.9,0c0.2-0.1,0.5-0.2,0.8-0.4l1.5-1.1c0.3-0.2,0.5-0.3,0.7-0.4
			c0.2-0.1,0.5-0.2,0.8-0.3c0.3-0.1,0.6-0.1,0.9-0.2c0.3,0,0.6,0,1,0.1c0.7,0.2,1.3,0.6,1.6,1.1C200.1,129.2,200.1,129.9,200,130.6z
			"/>
		<path class="st2" d="M201.1,124l-9-1.3l-0.2,1.7l-1.4-0.2l0.8-5.3l1.4,0.2l-0.2,1.7l9,1.3L201.1,124z"/>
		<path class="st2" d="M201.9,117.7l-10.5-0.6l0.2-4.4l1.3,0.1l-0.1,2.5l3,0.2l0.1-2l1.3,0.1l-0.1,2l3.5,0.2l0.1-2.5l1.3,0.1
			L201.9,117.7z"/>
		<path class="st2" d="M202.2,110.3l-10.5,0.4l0-1.3l5.8-2.8l-5.9,0.2l-0.1-1.6l10.5-0.4l0,1.3l-6.1,2.8l6.2-0.2L202.2,110.3z"/>
		<path class="st2" d="M201.7,101.6l-10.4,1.4l-0.3-2.4c-0.1-0.6-0.1-1.2,0-1.6c0.1-0.4,0.2-0.8,0.5-1.1c0.2-0.3,0.5-0.5,0.9-0.7
			c0.4-0.2,0.9-0.3,1.4-0.4l3.7-0.5c0.6-0.1,1.1-0.1,1.5,0c0.4,0.1,0.8,0.2,1.1,0.4c0.3,0.2,0.6,0.5,0.8,0.9
			c0.2,0.4,0.3,0.9,0.4,1.5L201.7,101.6z M200.1,99.9l-0.1-0.5c0-0.2-0.1-0.4-0.1-0.5c-0.1-0.1-0.1-0.3-0.2-0.3
			c-0.1-0.1-0.1-0.2-0.3-0.2c-0.1-0.1-0.2-0.1-0.3-0.1c-0.1,0-0.2,0-0.4,0c-0.2,0-0.3,0-0.5,0c-0.1,0-0.3,0-0.6,0.1l-3.8,0.5
			c-0.2,0-0.4,0.1-0.6,0.1c-0.1,0-0.3,0.1-0.4,0.1c-0.1,0.1-0.3,0.1-0.3,0.2c-0.1,0.1-0.1,0.2-0.2,0.3c-0.1,0.1-0.1,0.2-0.1,0.4
			c0,0.2,0,0.3,0,0.6l0.1,0.5L200.1,99.9z"/>
		<path class="st2" d="M200.3,92.9l-10.2,2.4l-1-4.3l1.3-0.3l0.6,2.4l2.9-0.7l-0.4-1.9l1.3-0.3l0.4,1.9l3.4-0.8l-0.6-2.4l1.3-0.3
			L200.3,92.9z"/>
	</g>
	<g>
		<path class="st2" d="M38.1,137.6l3.4-1.5c4.1-1.9,7.3-0.9,9.1,3.1l0.9,1.9l9.7-4.4l1.8,4.1l-25.8,11.8l-2.7-6
			C32.7,142.5,34,139.5,38.1,137.6z M39.1,146.8l8.7-4l-0.9-1.9c-0.6-1.3-1.5-1.7-3.3-0.9l-3.9,1.8c-1.8,0.8-2.1,1.8-1.5,3.1
			L39.1,146.8z"/>
		<path class="st2" d="M54.8,113.6l0.8,4.4l-4.9,1.7l1,5.4l5.2-0.2l0.7,4l-28.7,0.6l-1.2-6.4L54.8,113.6z M47.7,125.2L47,121
			l-13.7,4.7L47.7,125.2z"/>
		<path class="st2" d="M27,105.8l21.8,1.8c2,0.2,2.8-0.7,2.9-2.1c0.1-1.4-0.5-2.4-2.6-2.5l-21.8-1.8l0.4-4.2l21.5,1.8
			c4.5,0.4,6.9,2.9,6.6,7.2c-0.4,4.4-3.1,6.4-7.7,6l-21.5-1.8L27,105.8z"/>
		<path class="st2" d="M29.7,88.2l1.4-4.2l23.1,7.7l2.3-7l3.8,1.3l-3.7,11.2L29.7,88.2z"/>
		<path class="st2" d="M39.4,65.7l18.5,11.7c1.7,1.1,2.8,0.7,3.6-0.5c0.8-1.2,0.6-2.3-1.1-3.4L41.9,61.8l2.3-3.6l18.2,11.6
			c3.8,2.4,4.8,5.7,2.4,9.4c-2.3,3.7-5.8,4.2-9.6,1.8L37,69.5L39.4,65.7z"/>
		<path class="st2" d="M54.5,46.6c3.2-3,6.6-2.6,9.7,0.8l0.6,0.7l-3.1,2.9L60.9,50c-1.4-1.5-2.5-1.5-3.5-0.5c-1,1-1.1,2.1,0.3,3.6
			c4,4.3,11.1-0.9,16.6,5.1c3.1,3.3,3.2,6.8,0,9.7c-3.2,3-6.6,2.6-9.7-0.7l-1.2-1.3l3.1-2.9l1.4,1.5c1.4,1.5,2.5,1.4,3.6,0.4
			c1-1,1.2-2.1-0.2-3.6c-4-4.3-11.1,0.9-16.6-5.1C51.5,53,51.3,49.5,54.5,46.6z"/>
		<path class="st2" d="M76.5,46.3l5-2.9l2,3.5l-5,2.9l5.8,10.1l-3.9,2.2L66.3,37.6l10.2-5.9l2,3.5l-6.4,3.7L76.5,46.3z"/>
		<path class="st2" d="M92.2,38.7l5.9-1.7l1.1,3.9l-5.9,1.7l2.3,8l7.4-2.1l1.1,3.9l-11.7,3.3l-7.8-27.3l11.7-3.3l1.1,3.9l-7.4,2.1
			L92.2,38.7z"/>
		<path class="st2" d="M109.9,35.5l6.1-0.2l0.2,4l-6.1,0.2l0.3,8.3l7.7-0.3l0.2,4l-12.1,0.5L105,23.7l12.1-0.5l0.2,4l-7.7,0.3
			L109.9,35.5z"/>
		<path class="st2" d="M132.3,25c4.2,0.9,5.9,3.9,5,8.3l-0.2,0.9l-4.1-0.9l0.2-1.1c0.4-2-0.2-2.9-1.6-3.2c-1.4-0.3-2.3,0.3-2.8,2.3
			c-1.2,5.7,7.1,8.6,5.4,16.5c-0.9,4.4-3.7,6.5-8,5.6c-4.3-0.9-6-3.9-5-8.3l0.4-1.7l4.1,0.9l-0.4,2c-0.4,2,0.3,2.9,1.7,3.2
			c1.4,0.3,2.4-0.2,2.8-2.2c1.2-5.7-7.1-8.6-5.4-16.5C125.3,26.2,128,24.1,132.3,25z"/>
		<path class="st2" d="M146.4,29.3l12.4,6l-1.8,3.6l-4.2-2l-10.6,21.9l-4-1.9L148.8,35l-4.2-2L146.4,29.3z"/>
		<path class="st2" d="M161.6,52l4.7,3.9l-2.6,3.1l-4.7-3.9l-5.3,6.4l5.9,4.9l-2.6,3.1l-9.3-7.8L165.8,40l9.3,7.8l-2.6,3.1l-5.9-4.9
			L161.6,52z"/>
		<path class="st2" d="M177.4,62.3l-16.8,11.9l-2.3-3.3l23.1-16.4l3.2,4.6l-11.2,13.5l13.8-9.8l2.3,3.2l-23.1,16.4l-2.6-3.7
			L177.4,62.3z"/>
	</g>
	<path class="st2" d="M119.7,90.5l4.8-3.5l5.3-4.6l2-3.6l4.6-3.5l5.9-2.3l-0.5-2l-5.4-1.4l-5.9,1.3l-3.2,5l-7.4,3.5l-4.6,3.8
		l-5.7,2.4l-4.9,2.3l-2.3,1.6L99.7,91l-4.2,1.8l-5.5,0.6l-1.7-0.6l-0.8-1.6l-2.2,0.6l-2,5.4l-3.1,3.1l0,3.9l4.5,2.4l2-2.1l3-1.3
		l7.2,1.7l-0.4,4.6l-2.7,2.6l-2.1,8.9l-0.6,6.2l2.6,5.8l-3.4,2.2l-0.4,3.2l2.7,0.5l4.3-1.5l15.3,22.9l5.6-1
		c2.1,5.9,6.6,21.2,10.6,38.5c1.4-0.2,2.8-0.5,4.2-0.8c-3.7-16.7-7.5-28.9-10.9-39.5l4.8-3.1l-5.5-28.3l2.8-2.1l-0.6-1l1.9-0.3
		l0.1-1.2l-1.2-0.7l0.7-3.5l-2.5-3.1l-5.5-2.7l-0.8-1l-0.6-7.8l1.7-7.2L119.7,90.5z M96.6,131.9l-1-5.5l-0.1-3.3l1.8-2.6l1.9-4.4
		l2.8,0.9c-1.5,2.1-2.5,4.6-1.7,6.9c1.3,3.8,6,3.5,6,3.5L96.6,131.9z M119.7,119.7l-0.4,2.2l-11.1,4.8c0,0,2.8-3,2.5-5.5
		c-0.2-1.9-0.9-3.5-2.3-4.5l6.9,0.9L119.7,119.7z"/>
</g>
</svg>
